<svg xmlns="http://www.w3.org/2000/svg"
     viewBox="0 0 420 282"
     width="420"
     height="282"
     role="img"
     aria-label="Top languages">

<defs>

<style><![CDATA[
text{
  font-family:SFMono-Regular,Consolas,"Liberation Mono",Menlo,monospace
}

@keyframes cardIn{
  0%{opacity:0;transform:scale(.94)}
  70%{opacity:1}
  100%{opacity:1;transform:scale(1)}
}

@keyframes borderGlow{
  0%,100%{opacity:.35}
  50%{opacity:.85}
}

@keyframes titleGlow{
  0%,100%{filter:drop-shadow(0 0 2px rgba(245,158,11,.35))}
  50%{filter:drop-shadow(0 0 8px rgba(217,70,239,.75))}
}

@keyframes fadeUp{
  from{opacity:0;transform:translateX(-10px)}
  to{opacity:1;transform:translateX(0)}
}

@keyframes pop{
  0%{opacity:0;transform:scale(0)}
  55%{opacity:1;transform:scale(1.45)}
  75%{transform:scale(.85)}
  100%{transform:scale(1)}
}

@keyframes segPop{
  0%{opacity:0;transform:scaleY(.2)}
  55%{opacity:1;transform:scaleY(1.35)}
  100%{opacity:1;transform:scaleY(1)}
}

@keyframes sparkFlash{
  0%{opacity:0;transform:scale(.3)}
  30%{opacity:1;transform:scale(1.7)}
  70%{opacity:.9;transform:scale(1)}
  100%{opacity:0;transform:scale(.4)}
}

@keyframes shineX{
  0%{transform:translateX(-140px)}
  60%,100%{transform:translateX(460px)}
}

@keyframes twinkle{
  0%,100%{opacity:0;transform:scale(.3)}
  50%{opacity:1;transform:scale(1)}
}

@keyframes ringPulse{
  0%{opacity:.9;transform:scale(.4)}
  100%{opacity:0;transform:scale(2.6)}
}

@keyframes floaty{
  0%,100%{transform:translateY(0)}
  50%{transform:translateY(-4px)}
}

.card{
  transform-origin:210px 141px;
  animation:cardIn .6s cubic-bezier(.34,1.4,.4,1) forwards
}

.borderpulse{
  animation:borderGlow 3s ease-in-out infinite
}

.title{
  transform-origin:0 0;
  animation:titleGlow 3.2s ease-in-out 1.2s infinite
}

.row{
  opacity:0;
  animation:fadeUp .55s cubic-bezier(.22,.9,.3,1.2) forwards
}

.icon{
  transform-box:fill-box;
  transform-origin:center;
  opacity:0;
  animation:pop .6s cubic-bezier(.3,1.6,.4,1) forwards
}

.seg{
  transform-box:fill-box;
  transform-origin:bottom;
  opacity:0;
  animation:segPop .38s ease-out forwards
}

.spark{
  transform-box:fill-box;
  transform-origin:center;
  opacity:0;
  animation:sparkFlash .7s ease-out forwards
}

.sh{
  animation:shineX 4.5s ease-in-out 2.6s infinite
}

.tw{
  transform-box:fill-box;
  transform-origin:center;
  animation:twinkle 2.6s ease-in-out infinite
}

.ring{
  transform-box:fill-box;
  transform-origin:center;
  animation:ringPulse 1.6s ease-out infinite
}

.float{
  animation:floaty 3.4s ease-in-out infinite
}
]]></style>

<linearGradient id="tg" x1="0" y1="0" x2="1" y2="0">
  <stop offset="0%" stop-color="#f59e0b">
    <animate attributeName="stop-color"
             values="#f59e0b;#d946ef;#6366f1;#f59e0b"
             dur="6s"
             repeatCount="indefinite"/>
  </stop>

  <stop offset="100%" stop-color="#6366f1">
    <animate attributeName="stop-color"
             values="#6366f1;#f59e0b;#d946ef;#6366f1"
             dur="6s"
             repeatCount="indefinite"/>
  </stop>
</linearGradient>

<linearGradient id="shg" x1="0" y1="0" x2="1" y2="0">
  <stop offset="0%" stop-color="#fff" stop-opacity="0"/>
  <stop offset="50%" stop-color="#fff" stop-opacity=".08"/>
  <stop offset="100%" stop-color="#fff" stop-opacity="0"/>
</linearGradient>

<radialGradient id="bgglow">
  <stop offset="0%" stop-color="#d946ef" stop-opacity=".13"/>
  <stop offset="100%" stop-color="#d946ef" stop-opacity="0"/>
</radialGradient>

<filter id="glow"
        x="-50%"
        y="-50%"
        width="200%"
        height="200%">
  <feGaussianBlur stdDeviation="2.2" result="b"/>
  <feMerge>
    <feMergeNode in="b"/>
    <feMergeNode in="SourceGraphic"/>
  </feMerge>
</filter>

<filter id="borderblur"
        x="-20%"
        y="-20%"
        width="140%"
        height="140%">
  <feGaussianBlur stdDeviation="4.5"/>
</filter>

<clipPath id="cardc">
  <rect x="1" y="1" width="418" height="280" rx="14"/>
</clipPath>

</defs>

<g class="card">

<!-- OUTER NEON GLOW -->
<rect class="borderpulse"
      x="1"
      y="1"
      width="418"
      height="280"
      rx="14"
      fill="none"
      stroke="url(#tg)"
      stroke-width="7"
      filter="url(#borderblur)"/>

<!-- MAIN CARD -->
<rect x="1"
      y="1"
      width="418"
      height="280"
      rx="14"
      fill="#1e1033"
      stroke="url(#tg)"
      stroke-width="3.5"/>

<!-- INNER BORDER -->
<rect x="6"
      y="6"
      width="408"
      height="270"
      rx="10"
      fill="none"
      stroke="url(#tg)"
      stroke-width="1"
      stroke-opacity=".45"/>

<!-- BACKGROUND GLOW -->
<circle class="float"
        cx="210"
        cy="141"
        r="150"
        fill="url(#bgglow)"/>

<!-- STARS -->
<g clip-path="url(#cardc)">

<g class="tw">
  <animateTransform attributeName="transform"
                    type="scale"
                    values=".3;1;.3"
                    dur="2.6s"
                    repeatCount="indefinite"/>
  <path d="M388 24l2.2 5.8 5.8 2.2-5.8 2.2-2.2 5.8-2.2-5.8-5.8-2.2 5.8-2.2z"
        fill="#fbbf24"/>
</g>

<g class="tw">
  <path d="M20 250l2 5.4 5.4 2-5.4 2-2 5.4-2-5.4-5.4-2 5.4-2z"
        fill="#e879f9"/>
</g>

<g class="tw">
  <path d="M402 200l1.8 4.8 4.8 1.8-4.8 1.8-1.8 4.8-1.8-4.8-4.8-1.8 4.8-1.8z"
        fill="#818cf8"/>
</g>

</g>

<!-- TITLE -->
<g class="title" filter="url(#glow)">
<text x="20"
      y="34"
      font-size="16"
      font-weight="bold"
      fill="url(#tg)">📊 Top Languages</text>
</g>

<text x="396"
      y="34"
      text-anchor="end"
      font-size="9"
      fill="#8b7fa8"
      letter-spacing="1">LIVE COUNTER</text>


<!-- ================= HTML ================= -->

<g class="row" style="animation-delay:.95s">

<circle class="icon"
        style="animation-delay:.95s"
        cx="26"
        cy="91"
        r="5"
        fill="#f59e0b"/>

<circle class="ring"
        style="animation-delay:.95s"
        cx="26"
        cy="91"
        r="5"
        fill="none"
        stroke="#f59e0b"
        stroke-width="1.6"/>

<text x="40"
      y="96"
      font-size="13"
      fill="#e6edf3"
      font-weight="bold">HTML</text>

<!-- HTML BAR -->
<g fill="#241740"
   stroke="#f59e0b"
   stroke-opacity=".22"
   stroke-width="1.2">

<rect x="40" y="104" width="11.5" height="9" rx="2.5"/>
<rect x="53.5" y="104" width="11.5" height="9" rx="2.5"/>
<rect x="67" y="104" width="11.5" height="9" rx="2.5"/>
<rect x="80.5" y="104" width="11.5" height="9" rx="2.5"/>
<rect x="94" y="104" width="11.5" height="9" rx="2.5"/>
<rect x="107.5" y="104" width="11.5" height="9" rx="2.5"/>
<rect x="121" y="104" width="11.5" height="9" rx="2.5"/>
<rect x="134.5" y="104" width="11.5" height="9" rx="2.5"/>
<rect x="148" y="104" width="11.5" height="9" rx="2.5"/>
<rect x="161.5" y="104" width="11.5" height="9" rx="2.5"/>
<rect x="175" y="104" width="11.5" height="9" rx="2.5"/>
<rect x="188.5" y="104" width="11.5" height="9" rx="2.5"/>
<rect x="202" y="104" width="11.5" height="9" rx="2.5"/>
<rect x="215.5" y="104" width="11.5" height="9" rx="2.5"/>
<rect x="229" y="104" width="11.5" height="9" rx="2.5"/>
<rect x="242.5" y="104" width="11.5" height="9" rx="2.5"/>
<rect x="256" y="104" width="11.5" height="9" rx="2.5"/>
<rect x="269.5" y="104" width="11.5" height="9" rx="2.5"/>
<rect x="283" y="104" width="11.5" height="9" rx="2.5"/>
<rect x="296.5" y="104" width="11.5" height="9" rx="2.5"/>

</g>

<!-- HTML ACTIVE 82% -->
<g fill="#f59e0b"
   stroke="#fff"
   stroke-opacity=".55"
   stroke-width=".8">

<rect class="seg" style="animation-delay:1.150s"
      x="40" y="104" width="11.5" height="9" rx="2.5"/>
<rect class="seg" style="animation-delay:1.195s"
      x="53.5" y="104" width="11.5" height="9" rx="2.5"/>
<rect class="seg" style="animation-delay:1.240s"
      x="67" y="104" width="11.5" height="9" rx="2.5"/>
<rect class="seg" style="animation-delay:1.285s"
      x="80.5" y="104" width="11.5" height="9" rx="2.5"/>
<rect class="seg" style="animation-delay:1.330s"
      x="94" y="104" width="11.5" height="9" rx="2.5"/>
<rect class="seg" style="animation-delay:1.375s"
      x="107.5" y="104" width="11.5" height="9" rx="2.5"/>
<rect class="seg" style="animation-delay:1.420s"
      x="121" y="104" width="11.5" height="9" rx="2.5"/>
<rect class="seg" style="animation-delay:1.465s"
      x="134.5" y="104" width="11.5" height="9" rx="2.5"/>
<rect class="seg" style="animation-delay:1.510s"
      x="148" y="104" width="11.5" height="9" rx="2.5"/>
<rect class="seg" style="animation-delay:1.555s"
      x="161.5" y="104" width="11.5" height="9" rx="2.5"/>
<rect class="seg" style="animation-delay:1.600s"
      x="175" y="104" width="11.5" height="9" rx="2.5"/>
<rect class="seg" style="animation-delay:1.645s"
      x="188.5" y="104" width="11.5" height="9" rx="2.5"/>
<rect class="seg" style="animation-delay:1.690s"
      x="202" y="104" width="11.5" height="9" rx="2.5"/>
<rect class="seg" style="animation-delay:1.735s"
      x="215.5" y="104" width="11.5" height="9" rx="2.5"/>
<rect class="seg" style="animation-delay:1.780s"
      x="229" y="104" width="11.5" height="9" rx="2.5"/>
<rect class="seg" style="animation-delay:1.825s"
      x="242.5" y="104" width="11.5" height="9" rx="2.5"/>

</g>

<circle class="spark"
        style="animation-delay:1.825s"
        cx="248.25"
        cy="108.5"
        r="2.4"
        fill="#fff"
        filter="url(#glow)"/>

<text x="396"
      y="96"
      text-anchor="end"
      font-size="13"
      fill="#f59e0b"
      font-weight="bold">82.0%</text>

</g>


<!-- ================= TYPESCRIPT ================= -->

<g class="row" style="animation-delay:1.35s">

<circle class="icon"
        style="animation-delay:1.35s"
        cx="26"
        cy="133"
        r="5"
        fill="#6366f1"/>

<circle class="ring"
        style="animation-delay:1.35s"
        cx="26"
        cy="133"
        r="5"
        fill="none"
        stroke="#6366f1"
        stroke-width="1.6"/>

<text x="40"
      y="138"
      font-size="13"
      fill="#e6edf3"
      font-weight="bold">TypeScript</text>

<g fill="#241740"
   stroke="#6366f1"
   stroke-opacity=".22"
   stroke-width="1.2">

<rect x="40" y="146" width="11.5" height="9" rx="2.5"/>
<rect x="53.5" y="146" width="11.5" height="9" rx="2.5"/>
<rect x="67" y="146" width="11.5" height="9" rx="2.5"/>
<rect x="80.5" y="146" width="11.5" height="9" rx="2.5"/>
<rect x="94" y="146" width="11.5" height="9" rx="2.5"/>
<rect x="107.5" y="146" width="11.5" height="9" rx="2.5"/>
<rect x="121" y="146" width="11.5" height="9" rx="2.5"/>
<rect x="134.5" y="146" width="11.5" height="9" rx="2.5"/>
<rect x="148" y="146" width="11.5" height="9" rx="2.5"/>
<rect x="161.5" y="146" width="11.5" height="9" rx="2.5"/>
<rect x="175" y="146" width="11.5" height="9" rx="2.5"/>
<rect x="188.5" y="146" width="11.5" height="9" rx="2.5"/>
<rect x="202" y="146" width="11.5" height="9" rx="2.5"/>
<rect x="215.5" y="146" width="11.5" height="9" rx="2.5"/>
<rect x="229" y="146" width="11.5" height="9" rx="2.5"/>
<rect x="242.5" y="146" width="11.5" height="9" rx="2.5"/>
<rect x="256" y="146" width="11.5" height="9" rx="2.5"/>
<rect x="269.5" y="146" width="11.5" height="9" rx="2.5"/>
<rect x="283" y="146" width="11.5" height="9" rx="2.5"/>
<rect x="296.5" y="146" width="11.5" height="9" rx="2.5"/>

</g>

<g fill="#6366f1"
   stroke="#fff"
   stroke-opacity=".55"
   stroke-width=".8">

<rect class="seg" style="animation-delay:1.550s"
      x="40" y="146" width="11.5" height="9" rx="2.5"/>

<rect class="seg" style="animation-delay:1.595s"
      x="53.5" y="146" width="11.5" height="9" rx="2.5"/>

</g>

<circle class="spark"
        style="animation-delay:1.595s"
        cx="59.25"
        cy="150.5"
        r="2.4"
        fill="#fff"
        filter="url(#glow)"/>

<text x="396"
      y="138"
      text-anchor="end"
      font-size="13"
      fill="#6366f1"
      font-weight="bold">12.0%</text>

</g>


<!-- ================= CSS ================= -->

<g class="row" style="animation-delay:1.75s">

<circle class="icon"
        style="animation-delay:1.75s"
        cx="26"
        cy="175"
        r="5"
        fill="#d946ef"/>

<circle class="ring"
        style="animation-delay:1.75s"
        cx="26"
        cy="175"
        r="5"
        fill="none"
        stroke="#d946ef"
        stroke-width="1.6"/>

<text x="40"
      y="180"
      font-size="13"
      fill="#e6edf3"
      font-weight="bold">CSS</text>

<g fill="#241740"
   stroke="#d946ef"
   stroke-opacity=".22"
   stroke-width="1.2">

<rect x="40" y="188" width="11.5" height="9" rx="2.5"/>
<rect x="53.5" y="188" width="11.5" height="9" rx="2.5"/>
<rect x="67" y="188" width="11.5" height="9" rx="2.5"/>
<rect x="80.5" y="188" width="11.5" height="9" rx="2.5"/>
<rect x="94" y="188" width="11.5" height="9" rx="2.5"/>
<rect x="107.5" y="188" width="11.5" height="9" rx="2.5"/>
<rect x="121" y="188" width="11.5" height="9" rx="2.5"/>
<rect x="134.5" y="188" width="11.5" height="9" rx="2.5"/>
<rect x="148" y="188" width="11.5" height="9" rx="2.5"/>
<rect x="161.5" y="188" width="11.5" height="9" rx="2.5"/>
<rect x="175" y="188" width="11.5" height="9" rx="2.5"/>
<rect x="188.5" y="188" width="11.5" height="9" rx="2.5"/>
<rect x="202" y="188" width="11.5" height="9" rx="2.5"/>
<rect x="215.5" y="188" width="11.5" height="9" rx="2.5"/>
<rect x="229" y="188" width="11.5" height="9" rx="2.5"/>
<rect x="242.5" y="188" width="11.5" height="9" rx="2.5"/>
<rect x="256" y="188" width="11.5" height="9" rx="2.5"/>
<rect x="269.5" y="188" width="11.5" height="9" rx="2.5"/>
<rect x="283" y="188" width="11.5" height="9" rx="2.5"/>
<rect x="296.5" y="188" width="11.5" height="9" rx="2.5"/>

</g>

<rect class="seg"
      style="animation-delay:1.950s"
      x="40"
      y="188"
      width="11.5"
      height="9"
      rx="2.5"
      fill="#d946ef"
      stroke="#fff"
      stroke-opacity=".55"
      stroke-width=".8"/>

<circle class="spark"
        style="animation-delay:1.950s"
        cx="45.75"
        cy="192.5"
        r="2.4"
        fill="#fff"
        filter="url(#glow)"/>

<text x="396"
      y="180"
      text-anchor="end"
      font-size="13"
      fill="#d946ef"
      font-weight="bold">4.0%</text>

</g>


<!-- ================= JAVASCRIPT ================= -->

<g class="row" style="animation-delay:2.15s">

<circle class="icon"
        style="animation-delay:2.15s"
        cx="26"
        cy="217"
        r="5"
        fill="#fbbf24"/>

<circle class="ring"
        style="animation-delay:2.15s"
        cx="26"
        cy="217"
        r="5"
        fill="none"
        stroke="#fbbf24"
        stroke-width="1.6"/>

<text x="40"
      y="222"
      font-size="13"
      fill="#e6edf3"
      font-weight="bold">JavaScript</text>

<g fill="#241740"
   stroke="#fbbf24"
   stroke-opacity=".22"
   stroke-width="1.2">

<rect x="40" y="230" width="11.5" height="9" rx="2.5"/>
<rect x="53.5" y="230" width="11.5" height="9" rx="2.5"/>
<rect x="67" y="230" width="11.5" height="9" rx="2.5"/>
<rect x="80.5" y="230" width="11.5" height="9" rx="2.5"/>
<rect x="94" y="230" width="11.5" height="9" rx="2.5"/>
<rect x="107.5" y="230" width="11.5" height="9" rx="2.5"/>
<rect x="121" y="230" width="11.5" height="9" rx="2.5"/>
<rect x="134.5" y="230" width="11.5" height="9" rx="2.5"/>
<rect x="148" y="230" width="11.5" height="9" rx="2.5"/>
<rect x="161.5" y="230" width="11.5" height="9" rx="2.5"/>
<rect x="175" y="230" width="11.5" height="9" rx="2.5"/>
<rect x="188.5" y="230" width="11.5" height="9" rx="2.5"/>
<rect x="202" y="230" width="11.5" height="9" rx="2.5"/>
<rect x="215.5" y="230" width="11.5" height="9" rx="2.5"/>
<rect x="229" y="230" width="11.5" height="9" rx="2.5"/>
<rect x="242.5" y="230" width="11.5" height="9" rx="2.5"/>
<rect x="256" y="230" width="11.5" height="9" rx="2.5"/>
<rect x="269.5" y="230" width="11.5" height="9" rx="2.5"/>
<rect x="283" y="230" width="11.5" height="9" rx="2.5"/>
<rect x="296.5" y="230" width="11.5" height="9" rx="2.5"/>

</g>

<rect class="seg"
      style="animation-delay:2.350s"
      x="40"
      y="230"
      width="11.5"
      height="9"
      rx="2.5"
      fill="#fbbf24"
      stroke="#fff"
      stroke-opacity=".55"
      stroke-width=".8"/>

<circle class="spark"
        style="animation-delay:2.350s"
        cx="45.75"
        cy="234.5"
        r="2.4"
        fill="#fff"
        filter="url(#glow)"/>

<text x="396"
      y="222"
      text-anchor="end"
      font-size="13"
      fill="#fbbf24"
      font-weight="bold">2.0%</text>

</g>


<!-- MOVING SHINE -->
<g clip-path="url(#cardc)">
<rect class="sh"
      x="0"
      y="0"
      width="100"
      height="282"
      fill="url(#shg)"
      transform="skewX(-15)"/>
</g>

</g>

</svg>
